PathFileType	4	(X/Y/Z)	c:/Users/goper/Files/vsCode/490R/osim_files/C06/C06_Fast_05.trc
DataRate	CameraRate	NumFrames	NumMarkers	Units                	OrigDataRate	OrigDataStartFrame	OrigNumFrames
250.00	250.00	6	36	mm	250.0	1031	2061
                Frame#	Time	LPSIS			LASIS			LTH1			LTH2			LTH3			LTH4			LLFE			LMFE			LSH1			LSH2			LSH3			LSH4			LLMAL			LMMAL			LCAL			LMTP5			LTOE			LMTP1			RPSIS			RASIS			RTH1			RTH2			RTH3			RTH4			RLFE			RMFE			RSH1			RSH2			RSH3			RSH4			RLMAL			RMMAL			RCAL			RMTP1			RTOE			RMTP5		
		X1	Y1	Z1	X2	Y2	Z2	X3	Y3	Z3	X4	Y4	Z4	X5	Y5	Z5	X6	Y6	Z6	X7	Y7	Z7	X8	Y8	Z8	X9	Y9	Z9	X10	Y10	Z10	X11	Y11	Z11	X12	Y12	Z12	X13	Y13	Z13	X14	Y14	Z14	X15	Y15	Z15	X16	Y16	Z16	X17	Y17	Z17	X18	Y18	Z18	X19	Y19	Z19	X20	Y20	Z20	X21	Y21	Z21	X22	Y22	Z22	X23	Y23	Z23	X24	Y24	Z24	X25	Y25	Z25	X26	Y26	Z26	X27	Y27	Z27	X28	Y28	Z28	X29	Y29	Z29	X30	Y30	Z30	X31	Y31	Z31	X32	Y32	Z32	X33	Y33	Z33	X34	Y34	Z34	X35	Y35	Z35	X36	Y36	Z36

1031	4.12000	-1561.54346	950.41663	123.52752	-1722.16260	926.35156	254.98207	-1585.46216	752.85846	311.05234	-1572.65393	691.43262	306.89526	-1658.51831	732.12372	302.50439	-1635.88928	674.43079	299.63303	-1482.97241	458.55811	245.71524	-1482.39001	443.70621	131.24878	-1366.23572	397.31992	255.42447	-1349.51855	355.78232	251.17245	-1423.77783	366.63101	257.60699	-1397.97827	330.85062	253.08023	-1250.19897	138.43828	196.26271	-1267.12170	159.40457	121.26529	-1175.25586	140.71768	153.94641	-1321.63501	31.54154	212.52135	-1376.65491	37.49038	144.57347	-1338.19714	39.20412	97.47094	-1565.45264	941.71631	53.96821	-1754.77625	928.36963	15.64045	-1734.65820	718.72614	-70.98006	-1771.98755	668.75714	-64.79932	-1798.41821	758.53302	-57.78247	-1826.89722	702.61969	-54.49800	-1923.70520	451.70212	-1.52153	-1932.04016	475.66150	105.08379	-1899.28564	364.15280	-15.67517	-1916.88245	319.43298	-14.79335	-1958.89880	377.08527	-6.94961	-1967.66296	331.71417	-7.20228	-2024.45898	91.55086	32.53507	-2024.46936	118.93077	110.69129	-1974.91467	56.24749	79.69762	-2176.52393	86.32534	116.13024	-2182.78101	122.36826	71.09109	-2154.17773	74.10538	5.09384
1032	4.12400	-1569.04565	949.89661	123.71101	-1729.70251	925.03589	254.91454	-1592.39941	752.05084	310.58313	-1579.37524	690.62323	306.42142	-1665.31323	731.03076	302.20450	-1642.58435	673.45337	299.36649	-1489.14746	457.88425	245.65443	-1488.69080	442.97708	131.09515	-1371.81787	397.95068	255.30937	-1354.87354	357.02142	251.18559	-1428.93982	366.67328	257.53839	-1402.63733	331.13788	252.99091	-1252.84045	140.46826	196.71156	-1270.02954	161.02525	121.59785	-1177.96057	144.05934	154.26689	-1322.09583	31.66817	212.58960	-1377.04248	37.32733	144.57872	-1338.62720	39.34067	97.49797	-1572.60327	941.29828	54.07566	-1762.10706	927.76074	15.47474	-1743.03333	718.13635	-71.08710	-1779.82300	668.16907	-64.86726	-1806.47351	757.93744	-57.93255	-1834.81189	701.93060	-54.40745	-1930.48779	450.96533	-1.49342	-1938.68030	474.55493	105.23562	-1905.40955	363.57925	-14.97815	-1922.76196	318.72986	-13.98280	-1965.10864	376.18976	-6.60528	-1974.06860	330.36304	-6.30990	-2028.28516	90.99844	32.44151	-2028.75281	117.67477	110.80118	-1977.21838	56.96818	79.69841	-2179.43042	80.95064	116.83387	-2186.66089	117.22262	71.86733	-2156.86987	69.68811	5.82959
1033	4.12800	-1576.61047	949.48779	124.00713	-1737.24536	923.82983	254.93336	-1599.35413	751.17126	310.07434	-1586.23242	690.09454	305.73898	-1672.32117	730.04413	301.89990	-1649.42346	672.54279	299.02780	-1495.56421	457.28796	245.57028	-1495.16589	442.26065	130.97466	-1377.53699	398.65976	255.10454	-1360.18164	357.91272	251.08755	-1434.20288	366.67780	257.58582	-1407.62024	331.51385	252.99606	-1255.49023	142.55188	197.18402	-1272.94165	162.74879	122.00515	-1180.94153	147.55414	154.61006	-1322.55225	31.84073	212.65611	-1376.71021	37.52414	143.84253	-1339.09875	39.47388	97.53692	-1579.70471	940.94806	54.22972	-1769.19177	927.13507	15.32300	-1750.78894	717.87549	-71.58198	-1787.51001	667.70929	-64.91740	-1814.85181	757.43036	-57.64961	-1842.56995	701.26746	-54.22264	-1937.25659	450.36511	-1.59638	-1945.09961	473.50677	105.52759	-1911.58728	363.17636	-14.38402	-1928.80554	318.21762	-13.29455	-1971.48718	375.63037	-6.54164	-1980.13513	329.71396	-6.01240	-2032.01392	90.62010	32.24744	-2032.91150	116.38300	110.83866	-1979.26855	57.69405	79.59563	-2181.79053	75.95532	117.47243	-2190.42334	112.04047	72.61630	-2159.30103	65.41689	6.48548
1034	4.13200	-1584.19165	949.20544	124.34361	-1745.04773	922.68542	255.01329	-1606.27502	750.49554	309.27209	-1593.34216	689.33289	305.16406	-1679.48108	729.16412	301.40259	-1656.45618	671.60809	298.59189	-1502.12451	456.69370	245.56427	-1501.87268	441.56085	130.84193	-1383.36768	399.39520	254.92776	-1365.08142	358.43341	250.71313	-1439.74646	366.72168	257.55240	-1412.75061	331.91943	253.03242	-1257.89014	143.54691	196.98677	-1276.18286	164.50931	122.42362	-1184.13452	151.08405	154.76860	-1323.01233	32.01617	212.67836	-1377.00110	37.43649	143.87462	-1339.49060	39.66253	97.55121	-1586.99951	940.69720	54.42693	-1776.36450	926.57037	15.09156	-1758.59265	717.77649	-71.91226	-1795.10608	667.36963	-64.92945	-1822.86938	756.96161	-57.69255	-1850.27844	700.69989	-54.00229	-1943.82666	449.96219	-1.89089	-1951.31592	472.52081	105.91610	-1917.94507	363.04498	-13.86902	-1935.02209	318.05014	-12.80388	-1977.89612	375.31665	-6.40121	-1986.42505	329.41772	-5.92671	-2035.48901	90.15875	32.06322	-2036.52588	115.18546	110.79715	-1980.87646	58.36575	79.40599	-2183.87598	71.25839	117.97612	-2193.64575	107.19884	73.41013	-2161.43359	61.41671	7.02938
1035	4.13600	-1591.72913	949.02240	124.69429	-1752.74170	921.56177	254.94273	-1613.72607	749.61615	308.88995	-1600.45300	688.26471	304.70544	-1686.69934	728.18713	300.94623	-1663.61377	670.78455	298.18719	-1508.76843	456.14185	245.57434	-1508.58313	440.82959	130.74994	-1389.36377	400.28381	254.68408	-1371.21509	360.06665	250.99812	-1445.40515	366.97305	257.62219	-1417.94214	332.37653	253.09027	-1260.92749	145.63310	197.39612	-1279.74390	166.27420	122.87047	-1187.58044	154.79134	155.01558	-1323.48816	32.24208	212.73590	-1376.46021	36.78791	144.47076	-1339.85608	39.82323	97.53136	-1594.17468	940.58057	54.58715	-1783.58130	926.06342	14.88720	-1766.37488	717.96259	-72.21400	-1802.43542	667.32098	-64.92309	-1830.94556	756.71289	-57.66199	-1857.85352	700.22607	-53.71800	-1950.46582	449.83072	-2.30477	-1957.51331	471.70074	106.48030	-1924.50159	363.19006	-13.58402	-1941.37585	318.17432	-12.63146	-1984.42554	375.30930	-6.29297	-1992.80457	329.37064	-5.86179	-2038.14038	89.48003	31.82898	-2039.62207	114.01387	110.71090	-1982.38916	58.90747	79.20171	-2185.51709	66.91245	118.36533	-2197.17456	102.11099	73.81645	-2163.23022	57.83727	7.41696
1036	4.14000	-1599.32117	948.92902	125.15280	-1760.62463	920.37311	254.59496	-1621.20142	748.81549	308.25140	-1607.88916	687.71204	304.03043	-1694.02869	727.38544	300.50650	-1670.96350	669.92682	297.67319	-1515.57959	455.57434	245.68552	-1515.68726	440.11935	130.74908	-1395.61328	401.12067	254.62279	-1376.65198	360.82605	250.69321	-1451.19373	367.11884	257.68469	-1423.32129	332.91199	253.28142	-1264.22070	147.70401	197.85512	-1283.55713	168.08507	123.36811	-1191.26746	158.63354	155.27437	-1323.97498	32.42144	212.77025	-1376.95605	36.66708	144.51904	-1340.30408	40.05796	97.53278	-1600.53442	940.98407	54.63419	-1790.70276	925.69373	14.57583	-1774.13452	718.38074	-72.37016	-1809.75903	667.48969	-64.97188	-1838.88928	756.71301	-57.48923	-1865.30383	699.97864	-53.42109	-1957.04016	450.00858	-2.72218	-1963.37390	471.10281	107.04068	-1931.17883	363.73312	-13.71143	-1947.92261	318.66754	-12.91651	-1991.24158	375.61203	-6.24187	-1999.41650	329.62479	-5.90631	-2039.96631	88.83215	31.30467	-2042.06531	112.98643	110.61893	-1983.61292	59.39665	79.01303	-2186.99121	63.23515	118.53600	-2199.54565	97.78371	74.27200	-2164.65161	54.64864	7.65885
